<?xml version="1.0" encoding="UTF-8" standalone="no"?>
<!-- Created with Inkscape (http://www.inkscape.org/) -->

<svg
   width="180"
   height="180"
   viewBox="0 0 180 180"
   version="1.1"
   id="svg1"
   xml:space="preserve"
   inkscape:export-filename="p.svg"
   inkscape:export-xdpi="96"
   inkscape:export-ydpi="96"
   xmlns:inkscape="http://www.inkscape.org/namespaces/inkscape"
   xmlns:sodipodi="http://sodipodi.sourceforge.net/DTD/sodipodi-0.dtd"
   xmlns:xlink="http://www.w3.org/1999/xlink"
   xmlns="http://www.w3.org/2000/svg"
   xmlns:svg="http://www.w3.org/2000/svg"><sodipodi:namedview
     id="namedview1"
     pagecolor="#505050"
     bordercolor="#eeeeee"
     borderopacity="1"
     inkscape:showpageshadow="0"
     inkscape:pageopacity="0"
     inkscape:pagecheckerboard="0"
     inkscape:deskcolor="#505050"
     inkscape:document-units="px"
     inkscape:zoom="3.0523443"
     inkscape:cx="96.810836"
     inkscape:cy="90.913729"
     inkscape:window-width="1920"
     inkscape:window-height="991"
     inkscape:window-x="-9"
     inkscape:window-y="-9"
     inkscape:window-maximized="1"
     inkscape:current-layer="layer1" /><defs
     id="defs1"><linearGradient
       id="linearGradient2"
       inkscape:collect="always"><stop
         style="stop-color:#00d0a1;stop-opacity:1;"
         offset="0"
         id="stop2" /><stop
         style="stop-color:#00a4b4;stop-opacity:1;"
         offset="1"
         id="stop3" /></linearGradient><linearGradient
       inkscape:collect="always"
       xlink:href="#linearGradient2"
       id="linearGradient3"
       x1="20.1537"
       y1="180.27536"
       x2="159.8463"
       y2="-0.27536249"
       gradientUnits="userSpaceOnUse" /></defs><g
     inkscape:label="Layer 1"
     inkscape:groupmode="layer"
     id="layer1"><path
       d="m 97.312283,-0.27304734 c 0.42157,9.3345e-4 0.84314,0.001867 1.27748,0.001867 6.169887,0.0210025 12.194537,0.18334756 18.237387,1.54345374 0.38038,0.08261 0.76077,0.1651547 1.15268,0.250229 4.87002,1.0849356 9.35897,2.5304484 13.78247,4.8837287 0.8131,0.4259578 0.8131,0.4259578 1.64264,0.860521 12.42768,6.6936399 20.47955,17.5108399 24.49386,30.8766599 0.1492,0.485518 0.2984,0.971041 0.45213,1.47127 3.95223,15.680837 -0.31835,32.838896 -8.24924,46.529895 -2.92657,4.869143 -6.47569,9.058588 -10.4051,13.139579 -0.49274,0.545091 -0.49274,0.545091 -0.99544,1.101184 -8.7299,9.36059 -22.21841,15.35327 -34.91308,15.83395 -10.7879,0.23421 -21.686845,-1.43577 -31.299626,-6.66722 -0.04369,0.26807 -0.08739,0.53613 -0.132405,0.81232 -0.488253,2.83988 -1.089402,5.64265 -1.745428,8.4474 -3.053444,13.08081 -5.564901,25.93415 -5.64808,39.42535 -0.0028,0.36782 -0.0051,0.73565 -0.0078,1.11462 0.0042,1.95662 0.09723,3.86511 0.319622,5.80966 0.622786,5.71976 0.622786,5.71976 -0.494074,7.75198 -1.103674,1.04415 -2.15431,1.72964 -3.493106,2.44665 -0.455438,0.25991 -0.910876,0.51982 -1.380115,0.78759 -6.59135,3.5199 -13.743086,5.03328 -21.164807,3.577 -5.742978,-1.94762 -10.567067,-5.49092 -13.276088,-10.95706 -2.149321,-5.24647 -2.700717,-10.5627 -2.654488,-16.18946 0.0019,-0.31302 0.0037,-0.62604 0.0057,-0.94856 0.180631,-21.63352 8.48943,-43.24647 15.284944,-63.528529 0.107771,-0.321932 0.215542,-0.643863 0.32658,-0.975554 1.073687,-3.206903 2.14983,-6.412886 3.239703,-9.614328 5.788055,-15.909891 5.788055,-15.909891 8.096328,-32.54191 0.0076,-0.313451 0.01503,-0.626902 0.02278,-0.949856 0.0019,-2.040104 -0.282624,-3.345683 -1.568811,-4.942525 -1.662949,-1.131076 -2.974264,-1.052774 -4.904239,-0.771185 -9.870119,2.583556 -15.400192,16.000738 -20.08551,24.007077 -0.382461,0.655578 -0.76481,1.311245 -1.14672,1.967164 -0.616126,-0.154019 -1.232201,-0.308038 -1.866945,-0.466723 -0.698269,-14.405031 4.554174,-28.45882 14.124647,-39.150516 1.030521,-1.124336 2.086482,-2.222419 3.144114,-3.321301 0.39798,-0.442201 0.39798,-0.442201 0.804006,-0.893336 C 47.771569,10.212845 62.660311,4.539351 75.988915,1.651486 76.320414,1.5791439 76.651918,1.5067924 76.993462,1.4322567 83.763404,0.04748886 90.424987,-0.30261892 97.312333,-0.27374742 Z M 79.022569,30.67654 c 0.123938,0.48191 0.247872,0.96382 0.375568,1.460335 4.351004,17.696008 2.657116,36.545588 -1.378295,54.154482 -0.355951,1.605053 -0.481271,2.957827 -0.397443,4.592483 7.248782,1.33874 15.191362,0.340615 21.469264,-3.733786 8.662617,-6.237089 14.260417,-15.014894 16.510337,-25.436418 1.24922,-8.57709 -0.1103,-16.440187 -5.35821,-23.489309 -4.34176,-5.133265 -10.10125,-7.766606 -16.7528,-8.481234 -1.604963,-0.07347 -3.206613,-0.08635 -4.813084,-0.08751 -0.413624,-0.0057 -0.827248,-0.01143 -1.253408,-0.01731 -2.903042,-0.0063 -5.57921,0.366919 -8.401929,1.038273 z"
       fill="#000000"
       id="path1"
       style="fill:url(#linearGradient3);fill-opacity:1;stroke-width:0.466723" /></g></svg>
