<?xml version="1.0" encoding="UTF-8" standalone="no"?>
<!-- Created with Inkscape (http://www.inkscape.org/) -->

<svg
   width="180"
   height="180"
   viewBox="0 0 180 180"
   version="1.1"
   id="svg1"
   xml:space="preserve"
   inkscape:export-filename="presenzia-full.svg"
   inkscape:export-xdpi="96"
   inkscape:export-ydpi="96"
   sodipodi:docname="presenzia.svg"
   inkscape:version="1.3 (0e150ed6c4, 2023-07-21)"
   xmlns:inkscape="http://www.inkscape.org/namespaces/inkscape"
   xmlns:sodipodi="http://sodipodi.sourceforge.net/DTD/sodipodi-0.dtd"
   xmlns="http://www.w3.org/2000/svg"
   xmlns:svg="http://www.w3.org/2000/svg"><sodipodi:namedview
     id="namedview1"
     pagecolor="#505050"
     bordercolor="#eeeeee"
     borderopacity="1"
     inkscape:showpageshadow="0"
     inkscape:pageopacity="0"
     inkscape:pagecheckerboard="0"
     inkscape:deskcolor="#505050"
     inkscape:document-units="px"
     inkscape:zoom="1.5261722"
     inkscape:cx="95.008941"
     inkscape:cy="134.6506"
     inkscape:window-width="1920"
     inkscape:window-height="991"
     inkscape:window-x="-9"
     inkscape:window-y="-9"
     inkscape:window-maximized="1"
     inkscape:current-layer="layer1" /><defs
     id="defs1"><inkscape:path-effect
       effect="fillet_chamfer"
       id="path-effect12"
       is_visible="true"
       lpeversion="1"
       nodesatellites_param="F,0,0,1,0,33,0,1 @ F,0,0,1,0,33,0,1 @ F,0,0,1,0,33,0,1 @ F,0,0,1,0,33,0,1"
       radius="33"
       unit="px"
       method="auto"
       mode="F"
       chamfer_steps="1"
       flexible="false"
       use_knot_distance="true"
       apply_no_radius="true"
       apply_with_radius="true"
       only_selected="false"
       hide_knots="false" /></defs><g
     inkscape:label="Layer 1"
     inkscape:groupmode="layer"
     id="layer1"><path
       style="display:none;fill:#ffffff;fill-opacity:1;stroke:#ffffff;stroke-width:0;stroke-miterlimit:10"
       id="rect5-1"
       width="180"
       height="180"
       x="238.95108"
       y="-0.96418315"
       inkscape:path-effect="#path-effect12"
       sodipodi:type="rect"
       d="m 271.95108,-0.96418315 h 114 a 33,33 45 0 1 33,33.00000015 V 146.03582 a 33,33 135 0 1 -33,33 h -114 a 33,33 45 0 1 -33,-33 V 32.035817 a 33,33 135 0 1 33,-33.00000015 z"
       transform="translate(-238.95108,0.96418265)" /><path
       sodipodi:type="star"
       style="display:none;fill:#6d98ec;fill-opacity:1;stroke:#ffffff;stroke-width:0;stroke-miterlimit:10"
       id="path7"
       inkscape:flatsided="false"
       sodipodi:sides="3"
       sodipodi:cx="71.583008"
       sodipodi:cy="23.629343"
       sodipodi:r1="35.434174"
       sodipodi:r2="17.717089"
       sodipodi:arg1="2.0943951"
       sodipodi:arg2="3.1415927"
       inkscape:rounded="0"
       inkscape:randomized="0"
       d="m 53.865921,54.316238 -2e-6,-30.686896 2e-6,-30.6868934 L 80.441553,8.2858945 107.01718,23.629343 80.441551,38.972792 Z"
       inkscape:transform-center-x="-8.6470813"
       transform="matrix(0.97612909,0,0,0.97612909,16.594247,65.970526)" /><path
       id="rect13"
       style="display:inline;fill:#6d98ec;fill-opacity:1;fill-rule:evenodd;stroke:#ffffff;stroke-width:0;stroke-miterlimit:10"
       d="M 89.43282,0.00183077 C 39.802662,0.31431412 -0.20671671,40.746023 0.00192167,90.37672 v 81.97459 c 0,4.22358 3.42390703,7.64749 7.64749703,7.64749 27.5130173,0.006 55.0262933,-0.0117 82.5391883,0 49.631263,-0.10369 89.810483,-40.3671 89.810283,-89.99848 l -0.002,-0.755786 C 179.58019,39.61421 139.06388,-0.31136286 89.43282,0.00183077 Z M 88.56053,49.370007 a 43.397277,43.397277 0 0 1 43.67137,43.032106 v 0.36445 A 43.397277,43.397277 0 0 1 88.92498,136.16312 43.397277,43.397277 0 0 1 45.438805,92.94879 43.397277,43.397277 0 0 1 88.56053,49.370007 Z" /></g></svg>
